<svg width="45" height="45" viewBox="0 0 45 45" fill="none" xmlns="http://www.w3.org/2000/svg">
<path d="M22.7196 39.4999C12.3858 39.4884 4.01145 31.1005 4.0001 20.7499C4.73717 20.9584 4.98419 21.048 5.7501 21.0498C8.28379 21.0684 10.6642 19.8363 12.1147 17.7554C13.4115 15.8796 14.2006 13.4955 13.3598 11.375C13.8974 11.471 14.4424 11.5199 14.9884 11.5212C17.4161 11.5393 19.7202 10.4506 21.2501 8.56246C22.7472 6.73013 23.3325 4.316 22.8413 2C33.1797 2.03365 41.5335 10.4556 41.5 20.8108C41.4663 31.1661 33.0581 39.5335 22.7196 39.4999ZM24.1479 33.0648C24.4358 33.1888 24.7461 33.2526 25.0595 33.2523C26.0055 33.2514 26.8581 32.6805 27.2205 31.8053C27.5829 30.93 27.3839 29.9223 26.7162 29.2511C26.5 28.5 24.9114 28.1842 24.2904 28.1836C23.1795 28.1862 22.9926 29.352 22.7717 30.4425C22.5508 31.533 23.1258 32.6288 24.1479 33.0648ZM13.2101 29.8905C13.5852 30.0458 13.9872 30.1255 14.3932 30.1249C15.6596 30.1245 16.8003 29.3575 17.2802 28.1836C17.7601 27.0097 17.4027 25.3899 16.5001 24.5C15.9167 23.9245 15.212 23.8736 14.3932 23.8736C12.6709 23.8757 11.2755 25.2742 11.2745 26.9992C11.2748 28.2532 12.0215 29.3862 13.1726 29.8792H13.182H13.2026L13.2101 29.8905ZM30.8644 25.1899C32.1227 25.7191 33.5783 25.3675 34.4574 24.322C35.3365 23.2765 35.4348 21.7799 34.7 20.628C34.4699 20.2692 34.1693 19.9611 33.8165 19.7224C32.8475 19.067 31.5939 19.0092 30.5689 19.5726C29.5438 20.136 28.9192 21.2262 28.9507 22.3969C28.9822 23.5677 29.6645 24.6226 30.7184 25.1299H30.6959L30.7521 25.1543L30.7895 25.1693H30.7783C30.805 25.1779 30.8313 25.1879 30.8569 25.1993L30.8644 25.1899ZM22.7196 17.6243C21.973 17.623 21.3947 17.7663 21.2501 18.5C21.1055 19.2337 21.2501 20.5 21.2501 20.5C21.9412 20.7831 23.7378 21.253 24.1479 20.628C24.5579 20.0031 24.3426 18.5937 23.8091 18.0705C23.67 17.9333 23.506 17.8239 23.3261 17.748L23.2924 17.733L23.2419 17.7143C23.0742 17.6544 22.8975 17.6239 22.7196 17.6243ZM29.7394 9.81308C28.5416 9.81011 27.5362 10.7164 27.4134 11.9098C27.2906 13.1032 28.0903 14.1958 29.2635 14.4376C30.4367 14.6794 31.6021 13.9918 31.9597 12.8468C32.3173 11.7017 31.7508 10.4715 30.6492 10.0006H30.6304C30.3486 9.88001 30.0458 9.8163 29.7394 9.81308ZM8.67997 16.0624C7.81877 16.0624 7.12064 15.3632 7.12064 14.5006C7.12064 13.638 7.81877 12.9387 8.67997 12.9387C9.54116 12.9387 10.7501 13.638 10.7501 14.5006C10.7491 15.3627 9.54074 16.0614 8.67997 16.0624ZM6.34003 11.375C5.04772 11.375 4.0001 10.3256 4.0001 9.03121C4.0001 7.7368 5.04772 6.68748 6.34003 6.68748C7.63234 6.68748 8.67997 7.7368 8.67997 9.03121C8.67791 10.3248 7.63149 11.3729 6.34003 11.375ZM15.6998 8.24934C14.4075 8.24934 13.3598 7.20001 13.3598 5.9056C13.3598 4.61119 14.4075 3.56187 15.6998 3.56187C16.9921 3.56187 18.0397 4.61119 18.0397 5.9056C18.0397 7.20032 16.9924 8.25018 15.6998 8.25122V8.24934ZM10.2412 5.12561C9.38022 5.12561 8.68219 4.42672 8.68184 3.56437C8.6815 2.70202 9.37898 2.00257 10.2399 2.00187C11.1009 2.00119 11.7995 2.69952 11.8005 3.56187C11.8005 4.42477 11.1027 5.12457 10.2412 5.12561Z" fill="#0048FF"/>
</svg>
