<svg width="59" height="59" viewBox="0 0 59 59" fill="none" xmlns="http://www.w3.org/2000/svg">
<path d="M4.9216 29.5049C4.92446 41.5984 13.7185 51.8955 25.6626 53.7908V36.6095H19.4258V29.5049H25.6699V24.0966C25.3908 21.5339 26.2661 18.9798 28.0585 17.127C29.851 15.2743 32.3747 14.3149 34.9452 14.5091C36.7903 14.5389 38.6307 14.7032 40.4519 15.0007V21.0458H37.3446C36.2748 20.9057 35.1993 21.259 34.421 22.0062C33.6428 22.7534 33.246 23.8136 33.3424 24.8882V29.5049H40.1544L39.0654 36.612H33.3424V53.7908C46.2597 51.7494 55.3177 39.9523 53.9543 26.946C52.591 13.9397 41.2835 4.27732 28.2237 4.95889C15.1639 5.64047 4.92368 16.4273 4.9216 29.5049Z" fill="#F2F2F2"/>
</svg>
