<svg width="60" height="60" viewBox="0 0 60 60" fill="none" xmlns="http://www.w3.org/2000/svg">
<path d="M28.495 52.5225H22.185C21.8644 52.5406 21.5552 52.4005 21.3575 52.1475C21.1571 51.8906 21.0753 51.5607 21.1325 51.24C21.2325 50.6375 21.3575 49.8425 21.515 48.8325C21.6025 48.2775 21.6975 47.675 21.8 47.015C22.1125 45.015 22.325 43.6725 22.4675 42.795C22.5242 42.4433 22.5917 42.0267 22.67 41.545V41.495C22.7983 40.6967 22.955 39.7267 23.14 38.585L23.39 37.0375V37.025C23.57 35.9133 23.7117 35.0292 23.815 34.3725C23.8265 34.1025 23.9495 33.8494 24.1547 33.6736C24.3599 33.4977 24.6289 33.415 24.8975 33.445H28.6975C30.5205 33.4646 32.3402 33.2869 34.125 32.915C36.8121 32.3788 39.3048 31.1273 41.34 29.2925C43.1232 27.5793 44.4619 25.4572 45.24 23.11C45.6198 22.0196 45.914 20.9012 46.12 19.765C46.1375 19.66 46.1575 19.6 46.1825 19.58C46.1974 19.5607 46.2206 19.5496 46.245 19.55H46.27C46.3249 19.573 46.3769 19.6024 46.425 19.6375C47.7367 20.6311 48.6144 22.0927 48.875 23.7175C49.1708 25.4173 49.1369 27.1581 48.775 28.845C48.3015 32.1097 46.6502 35.0885 44.1325 37.22C41.3511 39.2023 37.981 40.1856 34.57 40.01H33.4725C33.0639 40.0066 32.6686 40.1544 32.3625 40.425C32.0451 40.7004 31.8338 41.078 31.765 41.4925L31.6625 41.9775L30.28 50.6725L30.2275 51.05C30.1561 51.4689 29.9359 51.8479 29.6075 52.1175C29.2983 52.3834 28.9028 52.5274 28.495 52.5225ZM19.55 47.5225H12.1375C11.7838 47.5299 11.4453 47.3786 11.215 47.11C10.9749 46.8461 10.869 46.4869 10.9275 46.135L16.755 9.16C16.8283 8.68561 17.075 8.25532 17.4475 7.9525C17.8072 7.64228 18.2675 7.47346 18.7425 7.47742H33.7775C34.6018 7.50997 35.4212 7.61962 36.225 7.805C37.1831 7.98631 38.1227 8.25407 39.0325 8.605C40.6883 9.19049 42.124 10.271 43.145 11.7C44.113 13.1587 44.6088 14.8799 44.565 16.63C44.5226 18.6596 44.1328 20.667 43.4125 22.565C42.2642 26.2516 39.4478 29.1829 35.81 30.4775C33.7681 31.1689 31.6283 31.5276 29.4725 31.54C29.4475 31.555 28.3725 31.5575 27.2225 31.5575L24.9725 31.54C23.4883 31.3885 22.1612 32.4663 22.005 33.95C21.9725 34.085 21.2125 38.8175 19.8675 47.2725C19.8675 47.3527 19.8316 47.4287 19.7696 47.4795C19.7077 47.5304 19.6261 47.5507 19.5475 47.535L19.55 47.5225Z" fill="#2F80ED"/>
</svg>
