<svg width="61" height="61" viewBox="0 0 61 61" fill="none" xmlns="http://www.w3.org/2000/svg">
<path d="M3.56012 60.7144C3.12659 60.7214 2.69557 60.6472 2.28928 60.4958L22.7599 40.0176L29.5359 46.8013L6.01282 60.018C5.26769 60.4547 4.42357 60.6944 3.56012 60.7144ZM0.601616 59.0242C0.18549 58.2706 -0.0216031 57.4194 0.00178242 56.5588V19.1836C-0.00165275 18.6162 0.0841163 18.0519 0.255949 17.5112L21.1815 38.4418L0.593991 59.0293L0.601616 59.0242ZM31.5566 45.6601L24.3357 38.4443L32.2987 30.4838L39.3722 34.4565C40.73 35.0641 41.6385 36.375 41.7309 37.8598C41.639 39.346 40.7292 40.6582 39.3697 41.2656L31.5566 45.6601ZM22.7599 36.8583L1.56237 15.6634C2.14437 15.233 2.84899 15.0005 3.57282 15C4.42769 15.0304 5.26168 15.2723 6.00012 15.704L30.2756 29.3477L22.7624 36.8583H22.7599Z" fill="#27AE60"/>
</svg>
