<svg width="60" height="60" viewBox="0 0 60 60" fill="none" xmlns="http://www.w3.org/2000/svg">
<path d="M49.9875 16.72C52.2286 15.3802 53.9055 13.2706 54.705 10.785C52.5991 12.0345 50.2951 12.9147 47.8925 13.3875C44.5615 9.86379 39.2838 9.00629 35.0085 11.2941C30.7332 13.5819 28.5188 18.4487 29.6025 23.175C20.9765 22.7419 12.9399 18.6673 7.49251 11.965C4.64961 16.8685 6.10239 23.1369 10.8125 26.29C9.10928 26.2352 7.44383 25.7741 5.95501 24.945C5.95501 24.99 5.95501 25.035 5.95501 25.08C5.95599 30.1879 9.55594 34.5877 14.5625 35.6C12.9827 36.0298 11.3255 36.0931 9.71751 35.785C11.1255 40.1531 15.1514 43.1457 19.74 43.235C15.9396 46.2178 11.2462 47.8354 6.41501 47.8275C5.55869 47.8287 4.70303 47.7795 3.85251 47.68C8.75848 50.8325 14.4684 52.5059 20.3 52.5C28.4131 52.5557 36.2101 49.3572 41.9468 43.62C47.6836 37.8828 50.8814 30.0856 50.825 21.9725C50.825 21.5075 50.8142 21.045 50.7925 20.585C52.8936 19.0665 54.707 17.1853 56.1475 15.03C54.19 15.8976 52.1137 16.4673 49.9875 16.72Z" fill="#56CCF2"/>
</svg>
